<svg width="121" height="17" viewBox="0 0 121 17" fill="none" xmlns="http://www.w3.org/2000/svg">
<path d="M0.0400001 13L0.024 11.304H1.016V3.496H0.024V1.8H4.312C6.08267 1.8 7.46933 2.31733 8.472 3.352C9.48533 4.39733 9.992 5.74667 9.992 7.4C9.992 9.14933 9.496 10.52 8.504 11.512C7.512 12.504 6.12 13 4.328 13H0.0400001ZM2.952 11.224H4.312C5.464 11.224 6.36 10.888 7 10.216C7.64 9.544 7.96 8.60533 7.96 7.4C7.96 6.22667 7.64 5.29867 7 4.616C6.36 3.93333 5.464 3.592 4.312 3.592H2.952V11.224ZM11.9188 13V11.24H13.5028V3.576H11.9188V1.8H17.0228V3.576H15.4388V11.24H17.0228V13H11.9188ZM24.6828 13.224L24.7148 13.24C23.0508 13.2293 21.6748 12.6693 20.5868 11.56C19.4988 10.4507 18.9548 9.064 18.9548 7.4C18.9548 5.75733 19.4988 4.38133 20.5868 3.272C21.6748 2.16267 23.0508 1.608 24.7148 1.608C25.9841 1.608 27.0988 1.96 28.0588 2.664C29.0294 3.368 29.6961 4.328 30.0588 5.544H27.9628C27.6854 4.89333 27.2534 4.38667 26.6667 4.024C26.0694 3.65067 25.4081 3.464 24.6828 3.464C23.5734 3.464 22.6774 3.83733 21.9948 4.584C21.3014 5.34133 20.9548 6.28533 20.9548 7.416C20.9548 8.55733 21.3068 9.50667 22.0108 10.264C22.7148 11.0107 23.6161 11.384 24.7148 11.384C25.5254 11.384 26.2454 11.1973 26.8748 10.824C27.5041 10.4507 27.9308 9.89067 28.1548 9.144H25.0028V7.464H30.3308C30.2668 8.47733 30.0588 9.368 29.7068 10.136C29.3548 10.9147 28.9068 11.5173 28.3628 11.944C27.8188 12.3813 27.2374 12.7013 26.6188 12.904C25.9788 13.1173 25.3334 13.224 24.6828 13.224ZM35.8153 13.208L35.7352 13.224C34.5619 13.224 33.5806 12.8667 32.7913 12.152C31.9913 11.4373 31.5913 10.52 31.5913 9.4H33.5433C33.5433 9.98667 33.7513 10.4667 34.1673 10.84C34.5726 11.2027 35.1166 11.384 35.7993 11.384C36.3966 11.384 36.8766 11.2507 37.2393 10.984C37.6019 10.7173 37.7833 10.3653 37.7833 9.928C37.7833 9.56533 37.6766 9.26133 37.4633 9.016C37.2499 8.77067 36.9726 8.59467 36.6313 8.488C36.2153 8.36 35.8313 8.25333 35.4793 8.168C35.0206 8.06133 34.6046 7.944 34.2313 7.816C33.7939 7.66667 33.4099 7.48533 33.0793 7.272C32.7273 7.048 32.4499 6.72267 32.2473 6.296C32.0339 5.848 31.9273 5.33067 31.9273 4.744C31.9273 3.85867 32.2633 3.112 32.9353 2.504C33.6073 1.896 34.5193 1.592 35.6713 1.592C36.7379 1.592 37.6499 1.88533 38.4073 2.472C39.1753 3.06933 39.5593 3.95467 39.5593 5.128H37.6073C37.6073 4.60533 37.4366 4.184 37.0953 3.864C36.7646 3.544 36.3006 3.384 35.7033 3.384C35.1059 3.384 34.6579 3.51733 34.3593 3.784C34.0606 4.05067 33.9113 4.376 33.9113 4.76C33.9113 5.09067 34.0233 5.368 34.2473 5.592C34.4606 5.80533 34.7486 5.97067 35.1113 6.088C35.3993 6.184 35.7833 6.28533 36.2633 6.392C36.6366 6.47733 37.0526 6.6 37.5113 6.76C37.9059 6.89867 38.2899 7.08533 38.6633 7.32C39.0153 7.544 39.3033 7.87467 39.5273 8.312C39.7513 8.74933 39.8633 9.272 39.8633 9.88C39.8633 10.8187 39.5006 11.608 38.7753 12.248C38.0499 12.888 37.0633 13.208 35.8153 13.208ZM53.4064 13L52.5904 10.6H47.7424L46.9264 13H44.9264L48.8464 1.8H51.5664L55.4544 13H53.4064ZM48.3344 8.824H51.9824L50.2384 3.704H50.0784L48.3344 8.824ZM56.4969 13V4.632H58.3849V5.592H58.5289C58.9769 4.81333 59.7289 4.424 60.7849 4.424C61.6809 4.424 62.4062 4.71733 62.9609 5.304C63.5155 5.89067 63.7929 6.62667 63.7929 7.512V13H61.9049V7.96C61.9049 7.45867 61.7449 7.03733 61.4249 6.696C61.1049 6.36533 60.7049 6.2 60.2249 6.2C59.7022 6.2 59.2649 6.376 58.9129 6.728C58.5609 7.08 58.3849 7.52267 58.3849 8.056V13H56.4969ZM69.4201 13.208V13.224C68.2788 13.224 67.3348 12.808 66.5881 11.976C65.8415 11.1547 65.4681 10.104 65.4681 8.824C65.4681 7.55467 65.8361 6.504 66.5721 5.672C67.3081 4.84 68.2361 4.424 69.3561 4.424C70.4548 4.424 71.3028 4.83467 71.9001 5.656H72.0441V4.632H73.9321V11.048C73.9321 11.2933 74.0601 11.416 74.3161 11.416H74.6841V13.016H73.2601C72.9081 13.016 72.6308 12.9147 72.4281 12.712C72.2255 12.5093 72.1081 12.2533 72.0761 11.944H71.9321C71.4095 12.7867 70.5721 13.208 69.4201 13.208ZM69.7561 11.4L69.7721 11.416C70.4655 11.416 71.0255 11.1707 71.4521 10.68C71.8895 10.1787 72.1081 9.57067 72.1081 8.856C72.1081 8.056 71.8841 7.42133 71.4361 6.952C70.9881 6.48267 70.4281 6.248 69.7561 6.248C69.0735 6.248 68.5081 6.488 68.0601 6.968C67.6121 7.448 67.3881 8.072 67.3881 8.84C67.3881 9.62933 67.6121 10.2533 68.0601 10.712C68.5081 11.1707 69.0735 11.4 69.7561 11.4ZM76.0656 13V11.336H77.6336V2.68H76.0656V0.999999H79.5216V11.336H81.0896V13H76.0656ZM82.5504 16.68V14.952H83.7504C84.2837 14.952 84.6517 14.6907 84.8544 14.168L85.3184 13H84.8544L81.9744 4.616H84.0064L85.9744 11.192H86.1184L88.2944 4.616H90.3424L86.4064 15.032C85.9797 16.1307 85.0944 16.68 83.7504 16.68H82.5504ZM95.7825 13V13.016C93.9798 13.016 93.0785 12.1787 93.0785 10.504V6.296H91.6225V4.632H93.1905V2.28H94.9825V4.632H97.3505V6.296H94.9825V10.488C94.9825 10.7867 95.0465 11 95.1745 11.128C95.3025 11.256 95.5105 11.32 95.7985 11.32H97.2545V13H95.7825ZM102.078 2.984C101.854 3.208 101.571 3.32 101.23 3.32C100.889 3.32 100.606 3.208 100.382 2.984C100.158 2.76 100.046 2.47733 100.046 2.136C100.046 1.80533 100.158 1.528 100.382 1.304C100.606 1.08 100.889 0.967999 101.23 0.967999C101.571 0.967999 101.854 1.08 102.078 1.304C102.302 1.528 102.414 1.80533 102.414 2.136C102.414 2.47733 102.302 2.76 102.078 2.984ZM100.27 13V6.28H98.7981V4.616H102.158V13H100.27ZM108.539 13.208L108.491 13.24C107.211 13.24 106.166 12.8187 105.355 11.976C104.544 11.1333 104.139 10.088 104.139 8.84C104.139 7.61333 104.55 6.57333 105.371 5.72C106.192 4.86667 107.232 4.44 108.491 4.44C109.504 4.44 110.379 4.712 111.115 5.256C111.862 5.8 112.352 6.568 112.587 7.56L110.795 7.992C110.678 7.448 110.416 7.016 110.011 6.696C109.595 6.376 109.104 6.216 108.539 6.216C107.814 6.216 107.222 6.46133 106.763 6.952C106.304 7.44267 106.075 8.06667 106.075 8.824C106.075 9.57067 106.31 10.1947 106.779 10.696C107.238 11.1867 107.83 11.432 108.555 11.432C109.131 11.432 109.627 11.272 110.043 10.952C110.448 10.632 110.71 10.2 110.827 9.656L112.619 10.088C112.374 11.08 111.888 11.848 111.163 12.392C110.427 12.936 109.552 13.208 108.539 13.208ZM117.329 13.208C116.391 13.208 115.617 12.984 115.009 12.536C114.412 12.088 114.055 11.448 113.937 10.616L115.729 10.216C115.911 11.08 116.471 11.512 117.409 11.512C118.337 11.512 118.801 11.2133 118.801 10.616C118.801 10.3067 118.641 10.072 118.321 9.912C117.98 9.74133 117.596 9.61867 117.169 9.544C116.721 9.45867 116.273 9.34667 115.825 9.208C115.367 9.05867 114.983 8.79733 114.673 8.424C114.353 8.04 114.193 7.53333 114.193 6.904C114.193 6.17867 114.476 5.576 115.041 5.096C115.596 4.616 116.343 4.376 117.281 4.376C118.092 4.376 118.791 4.57867 119.377 4.984C119.953 5.38933 120.316 5.96 120.465 6.696L118.785 7.16C118.625 6.44533 118.124 6.088 117.281 6.088C116.887 6.088 116.577 6.168 116.353 6.328C116.129 6.488 116.017 6.696 116.017 6.952C116.017 7.18667 116.129 7.37867 116.353 7.528C116.577 7.67733 116.865 7.77333 117.217 7.816C117.633 7.86933 118.012 7.93867 118.353 8.024C118.801 8.13067 119.18 8.248 119.489 8.376C119.841 8.52533 120.129 8.77067 120.353 9.112C120.577 9.464 120.689 9.90133 120.689 10.424C120.689 11.256 120.385 11.928 119.777 12.44C119.169 12.952 118.353 13.208 117.329 13.208Z" fill="white"/>
</svg>
