<svg width="886" height="197" viewBox="0 0 886 197" fill="none" xmlns="http://www.w3.org/2000/svg">
<g clip-path="url(#clip0_1261_19128)">
<path d="M493.529 74H504.799C505.86 74 506.878 74.4214 507.628 75.1716C508.378 75.9217 508.799 76.9391 508.799 78V81.77H509.969C513.589 75.43 519.669 72.33 528.199 72.33C535.439 72.33 541.259 74.65 545.789 79.44C550.319 84.23 552.519 90.17 552.519 97.29V137.65C552.519 138.711 552.098 139.728 551.348 140.478C550.598 141.229 549.58 141.65 548.519 141.65H537.259V100.9C537.32 99.0246 537.008 97.1559 536.342 95.4017C535.676 93.6475 534.669 92.0427 533.379 90.68C532.136 89.3663 530.63 88.3307 528.958 87.6413C527.286 86.9519 525.487 86.6243 523.679 86.68C521.712 86.6252 519.755 86.9759 517.93 87.7106C516.104 88.4452 514.45 89.5479 513.069 90.95C511.667 92.3555 510.566 94.0316 509.832 95.8762C509.098 97.7208 508.746 99.6954 508.799 101.68V137.68C508.799 138.741 508.378 139.758 507.628 140.508C506.878 141.259 505.86 141.68 504.799 141.68H493.529V74Z" fill="white"/>
<path d="M722.16 74H733.29C734.351 74 735.369 74.4214 736.119 75.1716C736.869 75.9217 737.29 76.9391 737.29 78V84H738.29C739.866 80.7149 742.281 77.9036 745.29 75.85C748.444 73.549 752.256 72.3252 756.16 72.36H757.21C758.271 72.36 759.288 72.7814 760.039 73.5315C760.789 74.2817 761.21 75.2991 761.21 76.36V87.63H754.49C748.93 87.63 744.66 89.44 741.68 93.06C738.68 96.68 737.29 101.72 737.29 108.19V141.69H722.16V74Z" fill="white"/>
<path d="M826.109 51.1H837.369C838.43 51.1 839.448 51.5214 840.198 52.2715C840.948 53.0217 841.369 54.0391 841.369 55.1V81.7599H842.529C844.344 78.9106 846.834 76.5541 849.779 74.9C853.178 73.0219 857.017 72.0863 860.899 72.19C868.269 72.19 874.219 74.52 878.739 79.3C883.301 84.1058 885.769 90.526 885.599 97.15V141.51H870.339V100.77C870.41 98.8933 870.094 97.0222 869.412 95.2725C868.731 93.5227 867.697 91.9315 866.375 90.5975C865.053 89.2635 863.472 88.2152 861.728 87.5172C859.985 86.8193 858.116 86.4866 856.239 86.54C854.297 86.5185 852.37 86.8855 850.571 87.6193C848.772 88.3531 847.138 89.4389 845.765 90.813C844.392 92.1871 843.307 93.8217 842.575 95.6209C841.842 97.4201 841.476 99.3475 841.499 101.29V141.64H826.109V51.1Z" fill="white"/>
<path d="M815.01 72.59V87.1H800.56C799.499 87.1 798.482 87.5214 797.731 88.2715C796.981 89.0217 796.56 90.0391 796.56 91.1V114.63C796.56 122.75 800.67 127.05 808.44 127.05H814.53V141.8L806 141.86C790.36 141.65 781 132.09 781 116.14V87.1H771.17V72.59H773.17C778.8 72.59 781.17 71.04 781.17 64.73V51.1H792.1C793.161 51.1 794.178 51.5214 794.928 52.2715C795.678 53.0217 796.1 54.0391 796.1 55.1V72.59H815.01Z" fill="white"/>
<path d="M450.211 143.68C439.981 143.68 431.701 140.32 425.351 133.68C419.001 127.04 415.801 118.57 415.801 108.1C415.801 97.63 419.171 89.0999 425.801 82.3399C428.886 79.0878 432.611 76.5097 436.742 74.768C440.872 73.0263 445.318 72.1587 449.801 72.2199C460.031 72.2199 468.181 75.46 474.141 82.06C480.101 88.66 483.071 97.06 483.071 107.3V107.58C483.071 108.641 482.649 109.658 481.899 110.408C481.149 111.159 480.132 111.58 479.071 111.58H431.701C431.831 117.27 433.511 121.8 436.881 125.17C440.251 128.54 444.771 130.17 450.341 130.17C454.049 130.191 457.686 129.15 460.821 127.17C463.925 125.241 466.227 122.254 467.301 118.76L481.301 122.12C479.396 128.558 475.268 134.112 469.651 137.79C463.891 141.598 457.136 143.623 450.231 143.61L450.211 143.68ZM467.211 100.83C467.097 98.7287 466.542 96.6751 465.582 94.8023C464.623 92.9296 463.28 91.2797 461.641 89.9599C458.2 87.1867 453.889 85.7202 449.471 85.8199C445.003 85.6879 440.651 87.261 437.301 90.2199C434.081 92.8692 432.036 96.6819 431.611 100.83H467.211Z" fill="white"/>
<path d="M278.53 143.32C272.309 143.374 266.141 142.161 260.404 139.754C254.667 137.347 249.48 133.797 245.16 129.32C236.24 120.4 231.84 109.32 231.84 95.95C231.84 82.58 236.37 71.51 245.29 62.59C254.21 53.67 265.29 49.14 278.66 49.14C292.03 49.14 303.1 53.66 312.02 62.72C320.94 71.78 325.47 82.89 325.47 96.21C325.47 109.53 320.95 120.65 312.02 129.71C303.09 138.77 292.02 143.29 278.66 143.29L278.53 143.32ZM278.66 127.93C282.714 128.036 286.745 127.284 290.489 125.722C294.232 124.161 297.603 121.826 300.38 118.87C306.2 112.8 309.05 105.16 309.05 95.98C309.05 86.8 306.2 79.17 300.38 73.09C297.609 70.118 294.242 67.7641 290.499 66.1823C286.757 64.6004 282.722 63.8261 278.66 63.91C269.86 63.91 262.66 66.91 256.8 72.96C250.94 79.01 248.14 86.67 248.14 95.85C248.14 105.03 250.98 112.67 256.8 118.74C259.59 121.726 262.98 124.088 266.748 125.671C270.515 127.255 274.574 128.025 278.66 127.93Z" fill="white"/>
<path d="M629.35 65.78V54.48C629.35 53.4191 628.928 52.4017 628.178 51.6516C627.428 50.9014 626.41 50.48 625.35 50.48H573.6V141.63H629.35V130.33C629.35 129.269 628.928 128.252 628.178 127.502C627.428 126.751 626.41 126.33 625.35 126.33H589.56V102.33H619.32V91.1C619.32 90.0391 618.898 89.0217 618.148 88.2715C617.398 87.5214 616.38 87.1 615.32 87.1H589.55V65.78H629.35Z" fill="white"/>
<path d="M708.181 128.83C706.111 128.83 705.081 127.83 705.081 125.83V77.44C705.078 76.5268 704.713 75.6518 704.067 75.0069C703.42 74.3621 702.544 74 701.631 74H689.801V82.28H688.631C683.851 75.68 676.991 72.28 668.071 72.28C663.807 72.1864 659.577 73.0423 655.685 74.7857C651.794 76.5291 648.339 79.1164 645.571 82.36C639.571 89.09 636.641 97.62 636.641 107.84C636.641 118.06 639.641 126.59 645.701 133.32C648.546 136.573 652.07 139.163 656.025 140.907C659.98 142.65 664.27 143.505 668.591 143.41C669.766 143.412 670.941 143.352 672.111 143.23C674.558 143.002 676.915 142.196 678.989 140.878C681.063 139.56 682.795 137.768 684.041 135.65C685.109 133.664 685.765 131.482 685.969 129.236C686.173 126.991 685.922 124.726 685.231 122.58C685.163 122.671 685.089 122.758 685.011 122.84C683.343 124.796 681.256 126.351 678.905 127.39C676.554 128.428 674 128.924 671.431 128.84H671.301C668.744 128.906 666.203 128.433 663.841 127.453C661.479 126.472 659.349 125.007 657.591 123.15C653.971 119.403 652.161 114.36 652.161 108.02C652.161 101.813 653.971 96.77 657.591 92.89C659.324 90.992 661.445 89.4898 663.811 88.4854C666.177 87.4811 668.731 86.9983 671.301 87.07C673.836 87.0177 676.354 87.497 678.693 88.477C681.032 89.457 683.14 90.9159 684.881 92.76C688.501 96.51 690.071 101.69 690.071 108.16C690.071 115.52 690.071 111.59 690.071 111.8V133.1C690.256 135.442 691.266 137.642 692.921 139.31C693.814 140.156 694.871 140.81 696.027 141.231C697.183 141.653 698.413 141.833 699.641 141.76H711.151V128.83H708.181Z" fill="white"/>
<path d="M397.14 82.53C394.262 79.2878 390.716 76.7078 386.745 74.9677C382.775 73.2275 378.474 72.3686 374.14 72.45C370.252 72.3409 366.395 73.1787 362.902 74.8911C359.409 76.6036 356.385 79.1393 354.09 82.28H352.93V78.1C352.93 77.0391 352.509 76.0217 351.758 75.2716C351.008 74.5214 349.991 74.1 348.93 74.1H337.8L337.67 163.39H348.94C350.001 163.39 351.018 162.969 351.768 162.218C352.519 161.468 352.94 160.451 352.94 159.39V133.1V107.95C352.776 102.465 354.614 97.1088 358.11 92.88C359.752 90.8796 361.828 89.2803 364.182 88.2041C366.535 87.128 369.103 86.6033 371.69 86.67C374.238 86.6119 376.769 87.1013 379.112 88.1054C381.455 89.1094 383.555 90.6047 385.27 92.49C388.89 96.37 390.7 101.54 390.7 107.88C390.7 114.22 388.86 119.1 385.24 123.1C383.572 125.019 381.505 126.55 379.183 127.586C376.862 128.623 374.342 129.139 371.8 129.1C369.288 129.166 366.79 128.706 364.466 127.748C362.143 126.791 360.046 125.357 358.31 123.54C358.08 123.3 357.86 123.06 357.65 122.81C356.364 126.969 356.744 131.466 358.71 135.35C359.837 137.375 361.416 139.112 363.323 140.426C365.231 141.741 367.417 142.598 369.71 142.93C371.447 143.199 373.202 143.333 374.96 143.33C379.224 143.42 383.454 142.562 387.345 140.817C391.237 139.072 394.691 136.484 397.46 133.24C403.41 126.51 406.38 118.11 406.38 107.89C406.38 97.67 403.35 89.26 397.14 82.53Z" fill="white"/>
<path d="M167.47 28.73C151.422 12.6809 130.306 2.69264 107.72 0.467083C85.1332 -1.75847 62.4738 3.91639 43.6023 16.5247C24.7308 29.133 10.8148 47.8947 4.2255 69.613C-2.36378 91.3313 -1.21869 114.662 7.46562 135.631C16.1499 156.6 31.8362 173.909 51.8516 184.608C71.867 195.308 94.9732 198.737 117.233 194.31C139.493 189.884 159.53 177.876 173.929 160.333C188.328 142.789 196.199 120.796 196.2 98.1C196.233 85.2122 193.711 72.4458 188.78 60.5388C183.848 48.6318 176.605 37.8205 167.47 28.73ZM9.80003 101.82C10.2263 91.208 12.7802 80.7899 17.3101 71.1839C21.84 61.5779 28.2535 52.9798 36.17 45.8999C52.0824 31.3457 73.0918 23.6527 94.6401 24.49C111.54 25.1588 127.485 32.5045 138.975 44.9154C150.465 57.3263 156.563 73.7886 155.93 90.69C155.427 103.846 149.796 116.283 140.24 125.339C130.685 134.396 117.964 139.353 104.8 139.15H103.87C99.06 138.78 92.96 137.15 89.03 131.44C88.79 131.11 88.57 130.76 88.36 130.44L88.21 130.21C77.3 111.97 94.4 101.62 94.4 89.29C94.4 75.7 84.4 70.65 79.4 69.92C59.57 66.99 53.87 86.6099 53.04 94.2099C52.2304 101.696 53.3314 109.265 56.24 116.21C58.2524 120.962 61.1583 125.284 64.8 128.94C75.1701 139.327 89.1743 145.273 103.85 145.52H104.85H105.52C120.192 145.51 134.291 139.82 144.86 129.643C155.429 119.465 161.647 105.591 162.21 90.93C162.908 72.3518 156.214 54.2544 143.593 40.603C130.973 26.9516 113.456 18.8596 94.88 18.1C93.73 18.1 92.59 18.04 91.44 18.04C69.3986 18.036 48.1544 26.284 31.8901 41.16C28.8453 43.9233 25.9952 46.8937 23.36 50.05C32.9222 35.1684 46.7082 23.4794 62.953 16.4794C79.1979 9.47943 97.1623 7.48707 114.546 10.7574C131.93 14.0278 147.942 22.412 160.533 34.8367C173.123 47.2613 181.719 63.161 185.22 80.5C185.752 85.0807 186.019 89.6884 186.02 94.3C185.594 104.911 183.041 115.328 178.513 124.934C173.985 134.54 167.574 143.139 159.66 150.22C143.748 164.774 122.738 172.467 101.19 171.63C84.2892 170.961 68.3436 163.616 56.8517 151.205C45.3597 138.795 39.2598 122.332 39.8901 105.43C40.3977 92.2828 46.0253 79.8551 55.5711 70.8006C65.1169 61.7462 77.8244 56.7827 90.98 56.97H91.92C96.73 57.34 102.83 59.0199 106.76 64.6799C106.99 65.0099 107.21 65.3599 107.43 65.6799C107.43 65.7599 107.53 65.83 107.57 65.91C118.49 84.15 101.39 94.4999 101.39 106.83C101.39 120.42 111.39 125.47 116.39 126.2C136.23 129.13 141.93 109.51 142.76 101.91C143.561 94.4233 142.457 86.8557 139.55 79.91C137.545 75.1564 134.642 70.8341 131 67.1799C120.627 56.7909 106.619 50.8449 91.94 50.6H90.22C75.548 50.6074 61.449 56.2971 50.8813 66.4751C40.3135 76.6532 34.0985 90.5286 33.54 105.19C32.8421 123.78 39.5478 141.889 52.1856 155.541C64.8234 169.193 82.3611 177.273 100.95 178.01C102.11 178.01 103.25 178.07 104.4 178.07C117.86 178.014 131.133 174.913 143.225 168.998C155.316 163.084 165.912 154.511 174.22 143.92C164.762 159.63 150.676 172.03 133.892 179.417C117.108 186.804 98.45 188.818 80.4767 185.181C62.5035 181.544 46.0958 172.435 33.5046 159.104C20.9134 145.772 12.7555 128.871 10.15 110.72C9.92 107.81 9.80003 104.84 9.80003 101.82Z" fill="white"/>
</g>
<defs>
<clipPath id="clip0_1261_19128">
<rect width="885.6" height="196.2" fill="white"/>
</clipPath>
</defs>
</svg>
