<svg width="268" height="17" viewBox="0 0 268 17" fill="none" xmlns="http://www.w3.org/2000/svg">
<path d="M5.996 13.208L5.98 13.144C4.33733 13.144 2.96133 12.5893 1.852 11.48C0.753333 10.3813 0.204 9.00533 0.204 7.352C0.204 5.70933 0.758667 4.33333 1.868 3.224C2.97733 2.11467 4.35333 1.56 5.996 1.56C7.63867 1.56 9.01467 2.12 10.124 3.24C11.2333 4.37067 11.788 5.752 11.788 7.384C11.788 9.016 11.2333 10.3973 10.124 11.528C9.01467 12.648 7.63867 13.208 5.996 13.208ZM5.996 11.288V11.304C7.07333 11.304 7.96933 10.9307 8.684 10.184C9.39867 9.43733 9.756 8.49333 9.756 7.352C9.756 6.21067 9.39867 5.26667 8.684 4.52C7.95867 3.76267 7.06267 3.384 5.996 3.384C4.908 3.384 4.00667 3.75733 3.292 4.504C2.57733 5.25067 2.22 6.19467 2.22 7.336C2.22 8.47733 2.57733 9.42133 3.292 10.168C4.00667 10.9147 4.908 11.288 5.996 11.288ZM13.7156 16.68L13.7316 4.648H15.6036V5.656H15.7476C16.3663 4.84533 17.193 4.44 18.2276 4.44C19.3583 4.44 20.3076 4.856 21.0756 5.688C21.8436 6.52 22.2276 7.56533 22.2276 8.824C22.2276 10.0827 21.8596 11.128 21.1236 11.96C20.3876 12.792 19.4596 13.208 18.3396 13.208C17.1876 13.208 16.3236 12.7867 15.7476 11.944H15.6036V16.68H13.7156ZM17.9556 11.464L17.9236 11.448C18.5956 11.448 19.1556 11.2027 19.6036 10.712C20.0516 10.2213 20.2756 9.592 20.2756 8.824C20.2756 8.03467 20.0516 7.4 19.6036 6.92C19.1556 6.44 18.5956 6.2 17.9236 6.2C17.241 6.2 16.681 6.456 16.2436 6.968C15.817 7.46933 15.6036 8.09333 15.6036 8.84C15.6036 9.65067 15.8276 10.2907 16.2756 10.76C16.7236 11.2293 17.2836 11.464 17.9556 11.464ZM27.7714 13.208V13.256C26.5127 13.256 25.4887 12.8453 24.6994 12.024C23.91 11.2027 23.5154 10.1467 23.5154 8.856C23.5154 7.576 23.926 6.51467 24.7474 5.672C25.558 4.84 26.55 4.424 27.7234 4.424C28.9927 4.424 29.9954 4.82933 30.7314 5.64C31.4674 6.45067 31.8354 7.49067 31.8354 8.76V9.288H25.4834C25.5047 10.0027 25.718 10.5627 26.1234 10.968C26.5394 11.384 27.094 11.592 27.7874 11.592C28.2567 11.592 28.6887 11.4693 29.0834 11.224C29.4674 10.9787 29.734 10.632 29.8834 10.184L31.6114 10.6C31.3447 11.4427 30.8647 12.088 30.1714 12.536C29.478 12.984 28.678 13.208 27.7714 13.208ZM25.4674 7.96H29.8674C29.814 7.39467 29.5847 6.94667 29.1794 6.616C28.7527 6.27467 28.2514 6.104 27.6754 6.104C27.078 6.104 26.5767 6.28533 26.1714 6.648C25.7447 7.02133 25.51 7.45867 25.4674 7.96ZM33.6375 13V4.632H35.5255V5.592H35.6695C36.1175 4.81333 36.8695 4.424 37.9255 4.424C38.8215 4.424 39.5468 4.71733 40.1015 5.304C40.6562 5.89067 40.9335 6.62667 40.9335 7.512V13H39.0455V7.96C39.0455 7.45867 38.8855 7.03733 38.5655 6.696C38.2455 6.36533 37.8455 6.2 37.3655 6.2C36.8428 6.2 36.4055 6.376 36.0535 6.728C35.7015 7.08 35.5255 7.52267 35.5255 8.056V13H33.6375ZM48.4328 13.224C46.7688 13.224 45.3928 12.6693 44.3048 11.56C43.2168 10.4507 42.6728 9.064 42.6728 7.4C42.6728 5.75733 43.2168 4.38133 44.3048 3.272C45.3928 2.16267 46.7688 1.608 48.4328 1.608C49.7021 1.608 50.8168 1.96 51.7768 2.664C52.7474 3.368 53.4141 4.328 53.7768 5.544H51.7128C51.4354 4.89333 51.0034 4.38667 50.4167 4.024C49.8194 3.65067 49.1581 3.464 48.4328 3.464C47.3234 3.464 46.4274 3.83733 45.7448 4.584C45.0514 5.34133 44.7048 6.28533 44.7048 7.416C44.7048 8.55733 45.0514 9.50667 45.7448 10.264C46.4274 11.0107 47.3234 11.384 48.4328 11.384C49.1474 11.384 49.8034 11.1973 50.4008 10.824C50.9874 10.4613 51.4194 9.95467 51.6968 9.304H53.7608C53.3874 10.5413 52.7261 11.5013 51.7768 12.184C50.8061 12.8773 49.6914 13.224 48.4328 13.224ZM55.2063 13V11.336H56.7743V2.68H55.2063V0.999999H58.6623V11.336H60.2303V13H55.2063ZM64.5625 2.984C64.3385 3.208 64.0558 3.32 63.7145 3.32C63.3732 3.32 63.0905 3.208 62.8665 2.984C62.6425 2.76 62.5305 2.47733 62.5305 2.136C62.5305 1.80533 62.6425 1.528 62.8665 1.304C63.0905 1.08 63.3732 0.967999 63.7145 0.967999C64.0558 0.967999 64.3385 1.08 64.5625 1.304C64.7865 1.528 64.8985 1.80533 64.8985 2.136C64.8985 2.47733 64.7865 2.76 64.5625 2.984ZM62.7545 13V6.28H61.2825V4.616H64.6425V13H62.7545ZM67.2313 13L67.2473 4.616H69.1353V5.56H69.2793C69.7273 4.792 70.4419 4.408 71.4233 4.408C72.5326 4.408 73.3326 4.86133 73.8233 5.768H73.9673C74.4899 4.86133 75.3113 4.408 76.4313 4.408C77.3059 4.408 78.0259 4.696 78.5913 5.272C79.1566 5.85867 79.4393 6.57867 79.4393 7.432V13H77.5353V8.056C77.5353 7.45867 77.3913 7 77.1033 6.68C76.8153 6.36 76.4313 6.2 75.9513 6.2C75.4713 6.2 75.0713 6.36533 74.7513 6.696C74.4313 7.03733 74.2713 7.49067 74.2713 8.056V13H72.3833V7.832C72.3833 7.33067 72.2339 6.936 71.9353 6.648C71.6259 6.36 71.2419 6.216 70.7833 6.216C70.3139 6.216 69.9193 6.38133 69.5993 6.712C69.2793 7.04267 69.1193 7.48 69.1193 8.024V13H67.2313ZM85.0608 13.208V13.224C83.9194 13.224 82.9754 12.808 82.2288 11.976C81.4821 11.1547 81.1088 10.104 81.1088 8.824C81.1088 7.55467 81.4768 6.504 82.2128 5.672C82.9488 4.84 83.8768 4.424 84.9968 4.424C86.0954 4.424 86.9434 4.83467 87.5408 5.656H87.6848V4.632H89.5728V11.048C89.5728 11.2933 89.7008 11.416 89.9568 11.416H90.3248V13.016H88.9008C88.5488 13.016 88.2714 12.9147 88.0688 12.712C87.8661 12.5093 87.7488 12.2533 87.7168 11.944H87.5728C87.0501 12.7867 86.2128 13.208 85.0608 13.208ZM85.3968 11.4L85.4128 11.416C86.1061 11.416 86.6661 11.1707 87.0928 10.68C87.5301 10.1787 87.7488 9.57067 87.7488 8.856C87.7488 8.056 87.5248 7.42133 87.0768 6.952C86.6288 6.48267 86.0688 6.248 85.3968 6.248C84.7141 6.248 84.1488 6.488 83.7008 6.968C83.2528 7.448 83.0288 8.072 83.0288 8.84C83.0288 9.62933 83.2528 10.2533 83.7008 10.712C84.1488 11.1707 84.7141 11.4 85.3968 11.4ZM95.6263 13V13.016C93.8236 13.016 92.9223 12.1787 92.9223 10.504V6.296H91.4663V4.632H93.0343V2.28H94.8263V4.632H97.1943V6.296H94.8263V10.488C94.8263 10.7867 94.8903 11 95.0182 11.128C95.1463 11.256 95.3543 11.32 95.6423 11.32H97.0983V13H95.6263ZM102.834 13.208V13.256C101.575 13.256 100.551 12.8453 99.7619 12.024C98.9725 11.2027 98.5779 10.1467 98.5779 8.856C98.5779 7.576 98.9885 6.51467 99.8099 5.672C100.621 4.84 101.613 4.424 102.786 4.424C104.055 4.424 105.058 4.82933 105.794 5.64C106.53 6.45067 106.898 7.49067 106.898 8.76V9.288H100.546C100.567 10.0027 100.781 10.5627 101.186 10.968C101.602 11.384 102.157 11.592 102.85 11.592C103.319 11.592 103.751 11.4693 104.146 11.224C104.53 10.9787 104.797 10.632 104.946 10.184L106.674 10.6C106.407 11.4427 105.927 12.088 105.234 12.536C104.541 12.984 103.741 13.208 102.834 13.208ZM100.53 7.96H104.93C104.877 7.39467 104.647 6.94667 104.242 6.616C103.815 6.27467 103.314 6.104 102.738 6.104C102.141 6.104 101.639 6.28533 101.234 6.648C100.807 7.02133 100.573 7.45867 100.53 7.96ZM112.696 13L112.68 11.304H113.672V3.496H112.68V1.8H116.968C118.739 1.8 120.126 2.31733 121.128 3.352C122.142 4.39733 122.648 5.74667 122.648 7.4C122.648 9.14933 122.152 10.52 121.16 11.512C120.168 12.504 118.776 13 116.984 13H112.696ZM115.608 11.224H116.968C118.12 11.224 119.016 10.888 119.656 10.216C120.296 9.544 120.616 8.60533 120.616 7.4C120.616 6.22667 120.296 5.29867 119.656 4.616C119.016 3.93333 118.12 3.592 116.968 3.592H115.608V11.224ZM124.575 13V11.24H126.159V3.576H124.575V1.8H129.679V3.576H128.095V11.24H129.679V13H124.575ZM137.339 13.224L137.371 13.24C135.707 13.2293 134.331 12.6693 133.243 11.56C132.155 10.4507 131.611 9.064 131.611 7.4C131.611 5.75733 132.155 4.38133 133.243 3.272C134.331 2.16267 135.707 1.608 137.371 1.608C138.64 1.608 139.755 1.96 140.715 2.664C141.686 3.368 142.352 4.328 142.715 5.544H140.619C140.342 4.89333 139.91 4.38667 139.323 4.024C138.726 3.65067 138.064 3.464 137.339 3.464C136.23 3.464 135.334 3.83733 134.651 4.584C133.958 5.34133 133.611 6.28533 133.611 7.416C133.611 8.55733 133.963 9.50667 134.667 10.264C135.371 11.0107 136.272 11.384 137.371 11.384C138.182 11.384 138.902 11.1973 139.531 10.824C140.16 10.4507 140.587 9.89067 140.811 9.144H137.659V7.464H142.987C142.923 8.47733 142.715 9.368 142.363 10.136C142.011 10.9147 141.563 11.5173 141.019 11.944C140.475 12.3813 139.894 12.7013 139.275 12.904C138.635 13.1173 137.99 13.224 137.339 13.224ZM148.472 13.208L148.391 13.224C147.218 13.224 146.237 12.8667 145.448 12.152C144.648 11.4373 144.248 10.52 144.248 9.4H146.2C146.2 9.98667 146.408 10.4667 146.824 10.84C147.229 11.2027 147.773 11.384 148.456 11.384C149.053 11.384 149.533 11.2507 149.896 10.984C150.258 10.7173 150.44 10.3653 150.44 9.928C150.44 9.56533 150.333 9.26133 150.12 9.016C149.906 8.77067 149.629 8.59467 149.288 8.488C148.872 8.36 148.488 8.25333 148.136 8.168C147.677 8.06133 147.261 7.944 146.888 7.816C146.45 7.66667 146.066 7.48533 145.736 7.272C145.384 7.048 145.106 6.72267 144.904 6.296C144.69 5.848 144.584 5.33067 144.584 4.744C144.584 3.85867 144.92 3.112 145.592 2.504C146.264 1.896 147.176 1.592 148.328 1.592C149.394 1.592 150.306 1.88533 151.064 2.472C151.832 3.06933 152.216 3.95467 152.216 5.128H150.264C150.264 4.60533 150.093 4.184 149.752 3.864C149.421 3.544 148.957 3.384 148.36 3.384C147.762 3.384 147.314 3.51733 147.016 3.784C146.717 4.05067 146.568 4.376 146.568 4.76C146.568 5.09067 146.68 5.368 146.904 5.592C147.117 5.80533 147.405 5.97067 147.768 6.088C148.056 6.184 148.44 6.28533 148.92 6.392C149.293 6.47733 149.709 6.6 150.168 6.76C150.562 6.89867 150.946 7.08533 151.32 7.32C151.672 7.544 151.96 7.87467 152.184 8.312C152.408 8.74933 152.52 9.272 152.52 9.88C152.52 10.8187 152.157 11.608 151.432 12.248C150.706 12.888 149.72 13.208 148.472 13.208ZM158.431 13L158.415 11.304H159.407V3.496H158.415V1.8H162.703C164.473 1.8 165.86 2.31733 166.863 3.352C167.876 4.39733 168.383 5.74667 168.383 7.4C168.383 9.14933 167.887 10.52 166.895 11.512C165.903 12.504 164.511 13 162.719 13H158.431ZM161.343 11.224H162.703C163.855 11.224 164.751 10.888 165.391 10.216C166.031 9.544 166.351 8.60533 166.351 7.4C166.351 6.22667 166.031 5.29867 165.391 4.616C164.751 3.93333 163.855 3.592 162.703 3.592H161.343V11.224ZM173.701 13.208V13.224C172.56 13.224 171.616 12.808 170.869 11.976C170.123 11.1547 169.749 10.104 169.749 8.824C169.749 7.55467 170.117 6.504 170.853 5.672C171.589 4.84 172.517 4.424 173.637 4.424C174.736 4.424 175.584 4.83467 176.181 5.656H176.325V4.632H178.213V11.048C178.213 11.2933 178.341 11.416 178.597 11.416H178.965V13.016H177.541C177.189 13.016 176.912 12.9147 176.709 12.712C176.507 12.5093 176.389 12.2533 176.357 11.944H176.213C175.691 12.7867 174.853 13.208 173.701 13.208ZM174.037 11.4L174.053 11.416C174.747 11.416 175.307 11.1707 175.733 10.68C176.171 10.1787 176.389 9.57067 176.389 8.856C176.389 8.056 176.165 7.42133 175.717 6.952C175.269 6.48267 174.709 6.248 174.037 6.248C173.355 6.248 172.789 6.488 172.341 6.968C171.893 7.448 171.669 8.072 171.669 8.84C171.669 9.62933 171.893 10.2533 172.341 10.712C172.789 11.1707 173.355 11.4 174.037 11.4ZM184.267 13V13.016C182.464 13.016 181.563 12.1787 181.563 10.504V6.296H180.107V4.632H181.675V2.28H183.467V4.632H185.835V6.296H183.467V10.488C183.467 10.7867 183.531 11 183.659 11.128C183.787 11.256 183.995 11.32 184.283 11.32H185.739V13H184.267ZM191.155 13.208V13.224C190.013 13.224 189.069 12.808 188.323 11.976C187.576 11.1547 187.203 10.104 187.203 8.824C187.203 7.55467 187.571 6.504 188.307 5.672C189.043 4.84 189.971 4.424 191.091 4.424C192.189 4.424 193.037 4.83467 193.635 5.656H193.779V4.632H195.667V11.048C195.667 11.2933 195.795 11.416 196.051 11.416H196.419V13.016H194.995C194.643 13.016 194.365 12.9147 194.163 12.712C193.96 12.5093 193.843 12.2533 193.811 11.944H193.667C193.144 12.7867 192.307 13.208 191.155 13.208ZM191.491 11.4L191.507 11.416C192.2 11.416 192.76 11.1707 193.187 10.68C193.624 10.1787 193.843 9.57067 193.843 8.856C193.843 8.056 193.619 7.42133 193.171 6.952C192.723 6.48267 192.163 6.248 191.491 6.248C190.808 6.248 190.243 6.488 189.795 6.968C189.347 7.448 189.123 8.072 189.123 8.84C189.123 9.62933 189.347 10.2533 189.795 10.712C190.243 11.1707 190.808 11.4 191.491 11.4ZM202.516 13V1.8H209.284V3.608H204.452V6.408H208.612V8.2H204.452V11.192H209.444V13H202.516ZM210.332 13L213.036 8.648L210.556 4.616H212.652L214.236 7.4H214.38L215.98 4.616H218.076L215.58 8.712L218.316 13H216.156L214.38 9.96H214.204L212.46 13H210.332ZM219.669 16.68L219.685 4.648H221.557V5.656H221.701C222.319 4.84533 223.146 4.44 224.181 4.44C225.311 4.44 226.261 4.856 227.029 5.688C227.797 6.52 228.181 7.56533 228.181 8.824C228.181 10.0827 227.813 11.128 227.077 11.96C226.341 12.792 225.413 13.208 224.293 13.208C223.141 13.208 222.277 12.7867 221.701 11.944H221.557V16.68H219.669ZM223.909 11.464L223.877 11.448C224.549 11.448 225.109 11.2027 225.557 10.712C226.005 10.2213 226.229 9.592 226.229 8.824C226.229 8.03467 226.005 7.4 225.557 6.92C225.109 6.44 224.549 6.2 223.877 6.2C223.194 6.2 222.634 6.456 222.197 6.968C221.77 7.46933 221.557 8.09333 221.557 8.84C221.557 9.65067 221.781 10.2907 222.229 10.76C222.677 11.2293 223.237 11.464 223.909 11.464ZM229.613 13V11.336H231.181V2.68H229.613V0.999999H233.069V11.336H234.637V13H229.613ZM240.337 13.208V13.24C239.057 13.24 238.001 12.824 237.169 11.992C236.337 11.16 235.921 10.1093 235.921 8.84C235.921 7.57067 236.337 6.52 237.169 5.688C238.001 4.856 239.057 4.44 240.337 4.44C241.617 4.44 242.673 4.856 243.505 5.688C244.337 6.52 244.753 7.56533 244.753 8.824C244.753 10.0827 244.337 11.128 243.505 11.96C242.673 12.792 241.617 13.208 240.337 13.208ZM240.337 11.448V11.464C241.084 11.464 241.687 11.2187 242.145 10.728C242.615 10.2267 242.849 9.60267 242.849 8.856C242.849 8.10933 242.615 7.48533 242.145 6.984C241.676 6.48267 241.073 6.232 240.337 6.232C239.612 6.232 239.02 6.47733 238.561 6.968C238.092 7.46933 237.857 8.09333 237.857 8.84C237.857 9.58667 238.092 10.2107 238.561 10.712C239.02 11.2027 239.612 11.448 240.337 11.448ZM246.606 13L246.622 4.632H248.494V5.864H248.622C248.804 5.48 249.092 5.144 249.486 4.856C249.881 4.568 250.329 4.424 250.83 4.424H251.454V6.312H250.622C249.94 6.312 249.412 6.536 249.038 6.984C248.676 7.42133 248.494 8.04533 248.494 8.856V13H246.606ZM256.568 13.208V13.256C255.31 13.256 254.286 12.8453 253.496 12.024C252.707 11.2027 252.312 10.1467 252.312 8.856C252.312 7.576 252.723 6.51467 253.544 5.672C254.355 4.84 255.347 4.424 256.52 4.424C257.79 4.424 258.792 4.82933 259.528 5.64C260.264 6.45067 260.632 7.49067 260.632 8.76V9.288H254.28C254.302 10.0027 254.515 10.5627 254.92 10.968C255.336 11.384 255.891 11.592 256.584 11.592C257.054 11.592 257.486 11.4693 257.88 11.224C258.264 10.9787 258.531 10.632 258.68 10.184L260.408 10.6C260.142 11.4427 259.662 12.088 258.968 12.536C258.275 12.984 257.475 13.208 256.568 13.208ZM254.264 7.96H258.664C258.611 7.39467 258.382 6.94667 257.976 6.616C257.55 6.27467 257.048 6.104 256.472 6.104C255.875 6.104 255.374 6.28533 254.968 6.648C254.542 7.02133 254.307 7.45867 254.264 7.96ZM262.434 13L262.45 4.632H264.322V5.864H264.45C264.632 5.48 264.92 5.144 265.314 4.856C265.709 4.568 266.157 4.424 266.658 4.424H267.282V6.312H266.45C265.768 6.312 265.24 6.536 264.866 6.984C264.504 7.42133 264.322 8.04533 264.322 8.856V13H262.434Z" fill="white"/>
</svg>
