<svg width="192" height="45" viewBox="0 0 192 45" fill="none" xmlns="http://www.w3.org/2000/svg">
<path d="M8.12 16.26L8.1 16.18C6.04667 16.18 4.32667 15.4867 2.94 14.1C1.56667 12.7267 0.88 11.0067 0.88 8.94C0.88 6.88667 1.57333 5.16667 2.96 3.78C4.34667 2.39333 6.06667 1.7 8.12 1.7C10.1733 1.7 11.8933 2.4 13.28 3.8C14.6667 5.21333 15.36 6.94 15.36 8.98C15.36 11.02 14.6667 12.7467 13.28 14.16C11.8933 15.56 10.1733 16.26 8.12 16.26ZM8.12 13.86V13.88C9.46667 13.88 10.5867 13.4133 11.48 12.48C12.3733 11.5467 12.82 10.3667 12.82 8.94C12.82 7.51333 12.3733 6.33333 11.48 5.4C10.5733 4.45333 9.45333 3.98 8.12 3.98C6.76 3.98 5.63333 4.44667 4.74 5.38C3.84667 6.31333 3.4 7.49333 3.4 8.92C3.4 10.3467 3.84667 11.5267 4.74 12.46C5.63333 13.3933 6.76 13.86 8.12 13.86ZM17.7695 20.6L17.7895 5.56H20.1295V6.82H20.3095C21.0829 5.80667 22.1162 5.3 23.4095 5.3C24.8229 5.3 26.0095 5.82 26.9695 6.86C27.9295 7.9 28.4095 9.20667 28.4095 10.78C28.4095 12.3533 27.9495 13.66 27.0295 14.7C26.1095 15.74 24.9495 16.26 23.5495 16.26C22.1095 16.26 21.0295 15.7333 20.3095 14.68H20.1295V20.6H17.7695ZM23.0695 14.08L23.0295 14.06C23.8695 14.06 24.5695 13.7533 25.1295 13.14C25.6895 12.5267 25.9695 11.74 25.9695 10.78C25.9695 9.79333 25.6895 9 25.1295 8.4C24.5695 7.8 23.8695 7.5 23.0295 7.5C22.1762 7.5 21.4762 7.82 20.9295 8.46C20.3962 9.08667 20.1295 9.86667 20.1295 10.8C20.1295 11.8133 20.4095 12.6133 20.9695 13.2C21.5295 13.7867 22.2295 14.08 23.0695 14.08ZM35.3392 16.26V16.32C33.7659 16.32 32.4859 15.8067 31.4992 14.78C30.5126 13.7533 30.0192 12.4333 30.0192 10.82C30.0192 9.22 30.5326 7.89333 31.5592 6.84C32.5726 5.8 33.8126 5.28 35.2792 5.28C36.8659 5.28 38.1192 5.78667 39.0392 6.8C39.9592 7.81333 40.4192 9.11333 40.4192 10.7V11.36H32.4792C32.5059 12.2533 32.7726 12.9533 33.2792 13.46C33.7992 13.98 34.4926 14.24 35.3592 14.24C35.9459 14.24 36.4859 14.0867 36.9792 13.78C37.4592 13.4733 37.7926 13.04 37.9792 12.48L40.1392 13C39.8059 14.0533 39.2059 14.86 38.3392 15.42C37.4726 15.98 36.4726 16.26 35.3392 16.26ZM32.4592 9.7H37.9592C37.8926 8.99333 37.6059 8.43333 37.0992 8.02C36.5659 7.59333 35.9392 7.38 35.2192 7.38C34.4726 7.38 33.8459 7.60667 33.3392 8.06C32.8059 8.52667 32.5126 9.07333 32.4592 9.7ZM42.6719 16V5.54H45.0319V6.74H45.2119C45.7719 5.76667 46.7119 5.28 48.0319 5.28C49.1519 5.28 50.0585 5.64667 50.7519 6.38C51.4452 7.11333 51.7919 8.03333 51.7919 9.14V16H49.4319V9.7C49.4319 9.07333 49.2319 8.54667 48.8319 8.12C48.4319 7.70667 47.9319 7.5 47.3319 7.5C46.6785 7.5 46.1319 7.72 45.6919 8.16C45.2519 8.6 45.0319 9.15333 45.0319 9.82V16H42.6719ZM61.1659 16.28C59.0859 16.28 57.3659 15.5867 56.0059 14.2C54.6459 12.8133 53.9659 11.08 53.9659 9C53.9659 6.94667 54.6459 5.22667 56.0059 3.84C57.3659 2.45333 59.0859 1.76 61.1659 1.76C62.7526 1.76 64.1459 2.2 65.3459 3.08C66.5593 3.96 67.3926 5.16 67.8459 6.68H65.2659C64.9193 5.86667 64.3793 5.23333 63.6459 4.78C62.8993 4.31333 62.0726 4.08 61.1659 4.08C59.7793 4.08 58.6593 4.54667 57.8059 5.48C56.9393 6.42667 56.5059 7.60667 56.5059 9.02C56.5059 10.4467 56.9393 11.6333 57.8059 12.58C58.6593 13.5133 59.7793 13.98 61.1659 13.98C62.0593 13.98 62.8793 13.7467 63.6259 13.28C64.3593 12.8267 64.8993 12.1933 65.2459 11.38H67.8259C67.3593 12.9267 66.5326 14.1267 65.3459 14.98C64.1326 15.8467 62.7393 16.28 61.1659 16.28ZM69.6328 16V13.92H71.5928V3.1H69.6328V0.999999H73.9528V13.92H75.9128V16H69.6328ZM81.3281 3.48C81.0481 3.76 80.6948 3.9 80.2681 3.9C79.8415 3.9 79.4881 3.76 79.2081 3.48C78.9281 3.2 78.7881 2.84667 78.7881 2.42C78.7881 2.00667 78.9281 1.66 79.2081 1.38C79.4881 1.1 79.8415 0.959999 80.2681 0.959999C80.6948 0.959999 81.0481 1.1 81.3281 1.38C81.6081 1.66 81.7481 2.00667 81.7481 2.42C81.7481 2.84667 81.6081 3.2 81.3281 3.48ZM79.0681 16V7.6H77.2281V5.52H81.4281V16H79.0681ZM84.6641 16L84.6841 5.52H87.0441V6.7H87.2241C87.7841 5.74 88.6774 5.26 89.9041 5.26C91.2907 5.26 92.2907 5.82667 92.9041 6.96H93.0841C93.7374 5.82667 94.7641 5.26 96.1641 5.26C97.2574 5.26 98.1574 5.62 98.8641 6.34C99.5707 7.07333 99.9241 7.97333 99.9241 9.04V16H97.5441V9.82C97.5441 9.07333 97.3641 8.5 97.0041 8.1C96.6441 7.7 96.1641 7.5 95.5641 7.5C94.9641 7.5 94.4641 7.70667 94.0641 8.12C93.6641 8.54667 93.4641 9.11333 93.4641 9.82V16H91.1041V9.54C91.1041 8.91333 90.9174 8.42 90.5441 8.06C90.1574 7.7 89.6774 7.52 89.1041 7.52C88.5174 7.52 88.0241 7.72667 87.6241 8.14C87.2241 8.55333 87.0241 9.1 87.0241 9.78V16H84.6641ZM106.951 16.26V16.28C105.524 16.28 104.344 15.76 103.411 14.72C102.478 13.6933 102.011 12.38 102.011 10.78C102.011 9.19333 102.471 7.88 103.391 6.84C104.311 5.8 105.471 5.28 106.871 5.28C108.244 5.28 109.304 5.79333 110.051 6.82H110.231V5.54H112.591V13.56C112.591 13.8667 112.751 14.02 113.071 14.02H113.531V16.02H111.751C111.311 16.02 110.964 15.8933 110.711 15.64C110.458 15.3867 110.311 15.0667 110.271 14.68H110.091C109.438 15.7333 108.391 16.26 106.951 16.26ZM107.371 14L107.391 14.02C108.258 14.02 108.958 13.7133 109.491 13.1C110.038 12.4733 110.311 11.7133 110.311 10.82C110.311 9.82 110.031 9.02667 109.471 8.44C108.911 7.85333 108.211 7.56 107.371 7.56C106.518 7.56 105.811 7.86 105.251 8.46C104.691 9.06 104.411 9.84 104.411 10.8C104.411 11.7867 104.691 12.5667 105.251 13.14C105.811 13.7133 106.518 14 107.371 14ZM120.158 16V16.02C117.904 16.02 116.778 14.9733 116.778 12.88V7.62H114.958V5.54H116.918V2.6H119.158V5.54H122.118V7.62H119.158V12.86C119.158 13.2333 119.238 13.5 119.398 13.66C119.558 13.82 119.818 13.9 120.178 13.9H121.998V16H120.158ZM129.167 16.26V16.32C127.594 16.32 126.314 15.8067 125.327 14.78C124.341 13.7533 123.847 12.4333 123.847 10.82C123.847 9.22 124.361 7.89333 125.387 6.84C126.401 5.8 127.641 5.28 129.107 5.28C130.694 5.28 131.947 5.78667 132.867 6.8C133.787 7.81333 134.247 9.11333 134.247 10.7V11.36H126.307C126.334 12.2533 126.601 12.9533 127.107 13.46C127.627 13.98 128.321 14.24 129.187 14.24C129.774 14.24 130.314 14.0867 130.807 13.78C131.287 13.4733 131.621 13.04 131.807 12.48L133.967 13C133.634 14.0533 133.034 14.86 132.167 15.42C131.301 15.98 130.301 16.26 129.167 16.26ZM126.287 9.7H131.787C131.721 8.99333 131.434 8.43333 130.927 8.02C130.394 7.59333 129.767 7.38 129.047 7.38C128.301 7.38 127.674 7.60667 127.167 8.06C126.634 8.52667 126.341 9.07333 126.287 9.7ZM141.495 16L141.475 13.88H142.715V4.12H141.475V2H146.835C149.049 2 150.782 2.64667 152.035 3.94C153.302 5.24667 153.935 6.93333 153.935 9C153.935 11.1867 153.315 12.9 152.075 14.14C150.835 15.38 149.095 16 146.855 16H141.495ZM145.135 13.78H146.835C148.275 13.78 149.395 13.36 150.195 12.52C150.995 11.68 151.395 10.5067 151.395 9C151.395 7.53333 150.995 6.37333 150.195 5.52C149.395 4.66667 148.275 4.24 146.835 4.24H145.135V13.78ZM156.344 16V13.8H158.324V4.22H156.344V2H162.724V4.22H160.744V13.8H162.724V16H156.344ZM172.299 16.28L172.339 16.3C170.259 16.2867 168.539 15.5867 167.179 14.2C165.819 12.8133 165.139 11.08 165.139 9C165.139 6.94667 165.819 5.22667 167.179 3.84C168.539 2.45333 170.259 1.76 172.339 1.76C173.925 1.76 175.319 2.2 176.519 3.08C177.732 3.96 178.565 5.16 179.019 6.68H176.399C176.052 5.86667 175.512 5.23333 174.779 4.78C174.032 4.31333 173.205 4.08 172.299 4.08C170.912 4.08 169.792 4.54667 168.939 5.48C168.072 6.42667 167.639 7.60667 167.639 9.02C167.639 10.4467 168.079 11.6333 168.959 12.58C169.839 13.5133 170.965 13.98 172.339 13.98C173.352 13.98 174.252 13.7467 175.039 13.28C175.825 12.8133 176.359 12.1133 176.639 11.18H172.699V9.08H179.359C179.279 10.3467 179.019 11.46 178.579 12.42C178.139 13.3933 177.579 14.1467 176.899 14.68C176.219 15.2267 175.492 15.6267 174.719 15.88C173.919 16.1467 173.112 16.28 172.299 16.28ZM186.214 16.26L186.114 16.28C184.648 16.28 183.421 15.8333 182.434 14.94C181.434 14.0467 180.934 12.9 180.934 11.5H183.374C183.374 12.2333 183.634 12.8333 184.154 13.3C184.661 13.7533 185.341 13.98 186.194 13.98C186.941 13.98 187.541 13.8133 187.994 13.48C188.448 13.1467 188.674 12.7067 188.674 12.16C188.674 11.7067 188.541 11.3267 188.274 11.02C188.008 10.7133 187.661 10.4933 187.234 10.36C186.714 10.2 186.234 10.0667 185.794 9.96C185.221 9.82667 184.701 9.68 184.234 9.52C183.688 9.33333 183.208 9.10667 182.794 8.84C182.354 8.56 182.008 8.15333 181.754 7.62C181.488 7.06 181.354 6.41333 181.354 5.68C181.354 4.57333 181.774 3.64 182.614 2.88C183.454 2.12 184.594 1.74 186.034 1.74C187.368 1.74 188.508 2.10667 189.454 2.84C190.414 3.58667 190.894 4.69333 190.894 6.16H188.454C188.454 5.50667 188.241 4.98 187.814 4.58C187.401 4.18 186.821 3.98 186.074 3.98C185.328 3.98 184.768 4.14667 184.394 4.48C184.021 4.81333 183.834 5.22 183.834 5.7C183.834 6.11333 183.974 6.46 184.254 6.74C184.521 7.00667 184.881 7.21333 185.334 7.36C185.694 7.48 186.174 7.60667 186.774 7.74C187.241 7.84667 187.761 8 188.334 8.2C188.828 8.37333 189.308 8.60667 189.774 8.9C190.214 9.18 190.574 9.59333 190.854 10.14C191.134 10.6867 191.274 11.34 191.274 12.1C191.274 13.2733 190.821 14.26 189.914 15.06C189.008 15.86 187.774 16.26 186.214 16.26ZM1.3 40L1.28 37.88H2.52V28.12H1.28V26H6.64C8.85333 26 10.5867 26.6467 11.84 27.94C13.1067 29.2467 13.74 30.9333 13.74 33C13.74 35.1867 13.12 36.9 11.88 38.14C10.64 39.38 8.9 40 6.66 40H1.3ZM4.94 37.78H6.64C8.08 37.78 9.2 37.36 10 36.52C10.8 35.68 11.2 34.5067 11.2 33C11.2 31.5333 10.8 30.3733 10 29.52C9.2 28.6667 8.08 28.24 6.64 28.24H4.94V37.78ZM20.3884 40.26V40.28C18.9618 40.28 17.7818 39.76 16.8484 38.72C15.9151 37.6933 15.4484 36.38 15.4484 34.78C15.4484 33.1933 15.9084 31.88 16.8284 30.84C17.7484 29.8 18.9084 29.28 20.3084 29.28C21.6818 29.28 22.7418 29.7933 23.4884 30.82H23.6684V29.54H26.0284V37.56C26.0284 37.8667 26.1884 38.02 26.5084 38.02H26.9684V40.02H25.1884C24.7484 40.02 24.4018 39.8933 24.1484 39.64C23.8951 39.3867 23.7484 39.0667 23.7084 38.68H23.5284C22.8751 39.7333 21.8284 40.26 20.3884 40.26ZM20.8084 38L20.8284 38.02C21.6951 38.02 22.3951 37.7133 22.9284 37.1C23.4751 36.4733 23.7484 35.7133 23.7484 34.82C23.7484 33.82 23.4684 33.0267 22.9084 32.44C22.3484 31.8533 21.6484 31.56 20.8084 31.56C19.9551 31.56 19.2484 31.86 18.6884 32.46C18.1284 33.06 17.8484 33.84 17.8484 34.8C17.8484 35.7867 18.1284 36.5667 18.6884 37.14C19.2484 37.7133 19.9551 38 20.8084 38ZM33.5953 40V40.02C31.342 40.02 30.2153 38.9733 30.2153 36.88V31.62H28.3953V29.54H30.3553V26.6H32.5953V29.54H35.5553V31.62H32.5953V36.86C32.5953 37.2333 32.6753 37.5 32.8353 37.66C32.9953 37.82 33.2553 37.9 33.6153 37.9H35.4353V40H33.5953ZM42.2048 40.26V40.28C40.7782 40.28 39.5982 39.76 38.6648 38.72C37.7315 37.6933 37.2648 36.38 37.2648 34.78C37.2648 33.1933 37.7248 31.88 38.6448 30.84C39.5648 29.8 40.7248 29.28 42.1248 29.28C43.4982 29.28 44.5582 29.7933 45.3048 30.82H45.4848V29.54H47.8448V37.56C47.8448 37.8667 48.0048 38.02 48.3248 38.02H48.7848V40.02H47.0048C46.5648 40.02 46.2182 39.8933 45.9648 39.64C45.7115 39.3867 45.5648 39.0667 45.5248 38.68H45.3448C44.6915 39.7333 43.6448 40.26 42.2048 40.26ZM42.6248 38L42.6448 38.02C43.5115 38.02 44.2115 37.7133 44.7448 37.1C45.2915 36.4733 45.5648 35.7133 45.5648 34.82C45.5648 33.82 45.2848 33.0267 44.7248 32.44C44.1648 31.8533 43.4648 31.56 42.6248 31.56C41.7715 31.56 41.0648 31.86 40.5048 32.46C39.9448 33.06 39.6648 33.84 39.6648 34.8C39.6648 35.7867 39.9448 36.5667 40.5048 37.14C41.0648 37.7133 41.7715 38 42.6248 38ZM56.407 40V26H64.867V28.26H58.827V31.76H64.027V34H58.827V37.74H65.067V40H56.407ZM66.1766 40L69.5566 34.56L66.4566 29.52H69.0766L71.0566 33H71.2366L73.2366 29.52H75.8566L72.7366 34.64L76.1566 40H73.4566L71.2366 36.2H71.0166L68.8366 40H66.1766ZM77.8477 44.6L77.8677 29.56H80.2077V30.82H80.3877C81.161 29.8067 82.1943 29.3 83.4877 29.3C84.901 29.3 86.0877 29.82 87.0477 30.86C88.0077 31.9 88.4877 33.2067 88.4877 34.78C88.4877 36.3533 88.0277 37.66 87.1077 38.7C86.1877 39.74 85.0277 40.26 83.6277 40.26C82.1877 40.26 81.1077 39.7333 80.3877 38.68H80.2077V44.6H77.8477ZM83.1477 38.08L83.1077 38.06C83.9477 38.06 84.6477 37.7533 85.2077 37.14C85.7677 36.5267 86.0477 35.74 86.0477 34.78C86.0477 33.7933 85.7677 33 85.2077 32.4C84.6477 31.8 83.9477 31.5 83.1077 31.5C82.2543 31.5 81.5543 31.82 81.0077 32.46C80.4743 33.0867 80.2077 33.8667 80.2077 34.8C80.2077 35.8133 80.4877 36.6133 81.0477 37.2C81.6077 37.7867 82.3077 38.08 83.1477 38.08ZM90.2773 40V37.92H92.2373V27.1H90.2773V25H94.5973V37.92H96.5573V40H90.2773ZM103.683 40.26V40.3C102.083 40.3 100.763 39.78 99.7233 38.74C98.6833 37.7 98.1633 36.3867 98.1633 34.8C98.1633 33.2133 98.6833 31.9 99.7233 30.86C100.763 29.82 102.083 29.3 103.683 29.3C105.283 29.3 106.603 29.82 107.643 30.86C108.683 31.9 109.203 33.2067 109.203 34.78C109.203 36.3533 108.683 37.66 107.643 38.7C106.603 39.74 105.283 40.26 103.683 40.26ZM103.683 38.06V38.08C104.617 38.08 105.37 37.7733 105.943 37.16C106.53 36.5333 106.823 35.7533 106.823 34.82C106.823 33.8867 106.53 33.1067 105.943 32.48C105.357 31.8533 104.603 31.54 103.683 31.54C102.777 31.54 102.037 31.8467 101.463 32.46C100.877 33.0867 100.583 33.8667 100.583 34.8C100.583 35.7333 100.877 36.5133 101.463 37.14C102.037 37.7533 102.777 38.06 103.683 38.06ZM111.52 40L111.54 29.54H113.88V31.08H114.04C114.266 30.6 114.626 30.18 115.12 29.82C115.613 29.46 116.173 29.28 116.8 29.28H117.58V31.64H116.54C115.686 31.64 115.026 31.92 114.56 32.48C114.106 33.0267 113.88 33.8067 113.88 34.82V40H111.52ZM123.972 40.26V40.32C122.399 40.32 121.119 39.8067 120.132 38.78C119.145 37.7533 118.652 36.4333 118.652 34.82C118.652 33.22 119.165 31.8933 120.192 30.84C121.205 29.8 122.445 29.28 123.912 29.28C125.499 29.28 126.752 29.7867 127.672 30.8C128.592 31.8133 129.052 33.1133 129.052 34.7V35.36H121.112C121.139 36.2533 121.405 36.9533 121.912 37.46C122.432 37.98 123.125 38.24 123.992 38.24C124.579 38.24 125.119 38.0867 125.612 37.78C126.092 37.4733 126.425 37.04 126.612 36.48L128.772 37C128.439 38.0533 127.839 38.86 126.972 39.42C126.105 39.98 125.105 40.26 123.972 40.26ZM121.092 33.7H126.592C126.525 32.9933 126.239 32.4333 125.732 32.02C125.199 31.5933 124.572 31.38 123.852 31.38C123.105 31.38 122.479 31.6067 121.972 32.06C121.439 32.5267 121.145 33.0733 121.092 33.7ZM131.305 40L131.325 29.54H133.665V31.08H133.825C134.051 30.6 134.411 30.18 134.905 29.82C135.398 29.46 135.958 29.28 136.585 29.28H137.365V31.64H136.325C135.471 31.64 134.811 31.92 134.345 32.48C133.891 33.0267 133.665 33.8067 133.665 34.82V40H131.305Z" fill="white"/>
</svg>
